<?xml version="1.0" encoding="UTF-8" standalone="no"?>
<svg
   xmlns:dc="http://purl.org/dc/elements/1.1/"
   xmlns:cc="http://creativecommons.org/ns#"
   xmlns:rdf="http://www.w3.org/1999/02/22-rdf-syntax-ns#"
   xmlns:svg="http://www.w3.org/2000/svg"
   xmlns="http://www.w3.org/2000/svg"
   xml:space="preserve"
   enable-background="new 0 0 214 167.065"
   viewBox="0 0 214.177 167.065"
   height="167.065"
   width="214.177"
   y="0px"
   x="0px"
   id="Layer_1"
   version="1.1"><metadata
   id="metadata115"><rdf:RDF><cc:Work
       rdf:about=""><dc:format>image/svg+xml</dc:format><dc:type
         rdf:resource="http://purl.org/dc/dcmitype/StillImage" /></cc:Work></rdf:RDF></metadata><defs
   id="defs113" />
<g
   transform="translate(0.176)"
   id="g20">
	<g
   id="g8">
		<polygon
   style="fill:#84c441"
   id="polygon2"
   points="161.773,74.003 213.825,53.817 213.825,21.933 " />
		<polygon
   style="fill:#84c441"
   id="polygon4"
   points="213.825,108 213.825,65.475 142.742,93.041 105.825,108 " />
		<polygon
   style="fill:#84c441"
   id="polygon6"
   points="105.825,0 105.825,108 106.871,106.956 125.903,87.913 213.779,0 " />
	</g>
	<g
   id="g18">
		<path
   style="fill:#41576d"
   id="path10"
   d="m 19.556,49.643 c -3.417,0 -6.366,-0.48 -8.847,-1.439 C 8.228,47.245 6.18,45.911 4.565,44.203 2.949,42.495 1.756,40.458 0.984,38.093 0.211,35.729 -0.176,33.119 -0.176,30.264 V 0 h 10.954 v 29.351 c 0,1.966 0.222,3.641 0.668,5.021 0.444,1.381 1.053,2.505 1.826,3.371 0.772,0.867 1.708,1.486 2.808,1.86 1.1,0.376 2.306,0.562 3.617,0.562 2.668,0 4.833,-0.819 6.495,-2.458 1.662,-1.638 2.493,-4.424 2.493,-8.356 V 0 h 10.954 v 30.264 c 0,2.855 -0.398,5.477 -1.194,7.864 -0.796,2.387 -2.012,4.436 -3.651,6.144 -1.639,1.709 -3.722,3.032 -6.249,3.967 -2.528,0.936 -5.525,1.404 -8.989,1.404 z" />
		<path
   style="fill:#41576d"
   id="path12"
   d="M 86.263,0 V 9.338 H 71.586 V 48.66 H 60.633 V 9.338 H 45.958 V 0 Z" />
		<path
   style="fill:#41576d"
   id="path14"
   d="m 24.121,108 c -7.912,0 -13.939,-2.198 -18.082,-6.601 -4.144,-4.398 -6.215,-10.648 -6.215,-18.748 0,-4.024 0.632,-7.617 1.897,-10.777 1.264,-3.161 2.995,-5.829 5.196,-8.005 2.2,-2.177 4.82,-3.827 7.864,-4.951 3.043,-1.123 6.342,-1.685 9.9,-1.685 2.06,0 3.933,0.153 5.618,0.456 1.686,0.306 3.159,0.657 4.424,1.054 1.264,0.398 2.317,0.807 3.159,1.229 0.843,0.421 1.451,0.75 1.826,0.983 l -3.16,8.846 c -1.499,-0.795 -3.242,-1.473 -5.231,-2.036 -1.99,-0.562 -4.248,-0.842 -6.775,-0.842 -1.686,0 -3.336,0.28 -4.951,0.842 -1.614,0.562 -3.043,1.464 -4.283,2.704 -1.242,1.24 -2.236,2.843 -2.985,4.81 -0.75,1.965 -1.124,4.354 -1.124,7.163 0,2.247 0.246,4.341 0.737,6.283 0.491,1.943 1.287,3.617 2.388,5.021 1.099,1.405 2.539,2.518 4.318,3.335 1.779,0.821 3.932,1.228 6.46,1.228 1.591,0 3.019,-0.092 4.284,-0.28 1.264,-0.187 2.386,-0.41 3.37,-0.667 0.983,-0.256 1.848,-0.55 2.598,-0.877 0.749,-0.327 1.427,-0.633 2.037,-0.913 l 3.019,8.777 c -1.545,0.937 -3.721,1.779 -6.53,2.527 -2.809,0.748 -6.062,1.124 -9.759,1.124 z" />
		<path
   style="fill:#41576d"
   id="path16"
   d="m 63.653,107.649 c -2.668,0 -5.326,-0.083 -7.969,-0.245 -2.646,-0.165 -5.396,-0.55 -8.251,-1.16 V 59.059 c 2.246,-0.421 4.705,-0.737 7.374,-0.948 2.667,-0.209 5.148,-0.315 7.443,-0.315 3.09,0 5.933,0.223 8.53,0.667 2.598,0.446 4.833,1.206 6.707,2.282 1.871,1.078 3.334,2.492 4.389,4.248 1.053,1.755 1.579,3.922 1.579,6.497 0,3.885 -1.872,6.951 -5.617,9.199 3.09,1.169 5.196,2.762 6.32,4.774 1.123,2.012 1.685,4.283 1.685,6.81 0,5.104 -1.861,8.942 -5.582,11.516 -3.723,2.573 -9.26,3.86 -16.608,3.86 z M 58.105,77.456 h 5.337 c 3.37,0 5.78,-0.433 7.232,-1.299 1.451,-0.866 2.177,-2.259 2.177,-4.179 0,-1.965 -0.749,-3.346 -2.246,-4.142 -1.499,-0.795 -3.699,-1.193 -6.601,-1.193 -0.938,0 -1.943,0.012 -3.02,0.036 -1.077,0.023 -2.037,0.082 -2.879,0.174 z m 0,8.356 V 98.38 c 0.795,0.094 1.661,0.165 2.598,0.211 0.937,0.047 1.967,0.071 3.09,0.071 3.276,0 5.921,-0.468 7.935,-1.405 2.012,-0.937 3.019,-2.668 3.019,-5.196 0,-2.247 -0.842,-3.85 -2.527,-4.81 -1.685,-0.96 -4.097,-1.44 -7.232,-1.44 h -6.883 z" />
	</g>
</g>
<g
   transform="translate(0.176)"
   id="g62">
	<path
   style="fill:#41576d"
   id="path22"
   d="m 10.976,123.267 v 9.947 c -0.007,0.981 -0.239,1.835 -0.696,2.562 -0.457,0.728 -1.102,1.286 -1.933,1.676 -0.832,0.39 -1.787,0.585 -2.865,0.585 -1.642,0 -2.957,-0.418 -3.945,-1.256 C 0.548,135.944 0.036,134.785 0,133.304 v -10.037 h 1.307 v 9.856 c 0,1.228 0.375,2.18 1.124,2.857 0.749,0.677 1.767,1.016 3.051,1.016 1.285,0 2.3,-0.34 3.047,-1.021 0.746,-0.681 1.119,-1.627 1.119,-2.842 v -9.867 h 1.328 z" />
	<path
   style="fill:#41576d"
   id="path24"
   d="m 16.139,127.009 0.042,1.852 c 0.436,-0.667 0.978,-1.176 1.628,-1.526 0.649,-0.35 1.367,-0.525 2.152,-0.525 1.243,0 2.167,0.327 2.773,0.98 0.607,0.654 0.914,1.635 0.921,2.942 v 7.105 h -1.274 v -7.115 c -0.007,-0.967 -0.227,-1.688 -0.659,-2.162 -0.432,-0.474 -1.123,-0.71 -2.072,-0.71 -0.792,0 -1.494,0.232 -2.104,0.696 -0.61,0.464 -1.062,1.089 -1.355,1.876 v 7.415 h -1.274 v -10.828 z" />
	<path
   style="fill:#41576d"
   id="path26"
   d="m 27.459,123.882 c 0,-0.226 0.079,-0.417 0.236,-0.572 0.157,-0.156 0.371,-0.234 0.643,-0.234 0.272,0 0.487,0.078 0.647,0.234 0.16,0.156 0.241,0.347 0.241,0.572 0,0.225 -0.081,0.414 -0.241,0.566 -0.161,0.153 -0.376,0.229 -0.647,0.229 -0.271,0 -0.486,-0.076 -0.643,-0.229 -0.157,-0.152 -0.236,-0.341 -0.236,-0.566 z m 1.51,13.955 h -1.285 v -10.828 h 1.285 z" />
	<path
   style="fill:#41576d"
   id="path28"
   d="m 36.628,136.186 3.523,-9.177 h 1.317 l -4.326,10.828 h -1.039 l -4.347,-10.828 h 1.317 z" />
	<path
   style="fill:#41576d"
   id="path30"
   d="m 48.484,138.037 c -0.985,0 -1.876,-0.227 -2.672,-0.681 -0.796,-0.454 -1.415,-1.085 -1.858,-1.896 -0.443,-0.81 -0.664,-1.719 -0.664,-2.727 v -0.43 c 0,-1.041 0.216,-1.978 0.648,-2.812 0.432,-0.833 1.033,-1.489 1.804,-1.966 0.771,-0.477 1.606,-0.716 2.506,-0.716 1.406,0 2.521,0.449 3.346,1.346 0.824,0.898 1.236,2.124 1.236,3.678 v 0.671 h -8.266 v 0.23 c 0,1.228 0.377,2.25 1.13,3.067 0.753,0.817 1.7,1.226 2.843,1.226 0.685,0 1.29,-0.117 1.814,-0.351 0.525,-0.233 1.001,-0.606 1.43,-1.121 l 0.803,0.57 c -0.941,1.275 -2.308,1.912 -4.1,1.912 z M 48.249,127.83 c -0.964,0 -1.776,0.33 -2.436,0.991 -0.661,0.66 -1.062,1.547 -1.205,2.661 h 6.949 v -0.13 c -0.036,-1.041 -0.354,-1.888 -0.953,-2.542 -0.599,-0.654 -1.385,-0.98 -2.355,-0.98 z" />
	<path
   style="fill:#41576d"
   id="path32"
   d="m 61.25,128.03 c -0.271,-0.046 -0.56,-0.07 -0.867,-0.07 -0.8,0 -1.476,0.209 -2.029,0.626 -0.553,0.417 -0.947,1.022 -1.183,1.816 v 7.436 H 55.897 V 127.01 h 1.253 l 0.021,1.721 c 0.678,-1.281 1.767,-1.921 3.266,-1.921 0.357,0 0.639,0.043 0.846,0.13 z" />
	<path
   style="fill:#41576d"
   id="path34"
   d="m 70.782,135.084 c 0,-0.593 -0.255,-1.07 -0.766,-1.431 -0.511,-0.361 -1.28,-0.642 -2.308,-0.845 -1.028,-0.204 -1.826,-0.437 -2.393,-0.701 -0.567,-0.264 -0.989,-0.586 -1.263,-0.965 -0.275,-0.381 -0.413,-0.841 -0.413,-1.382 0,-0.854 0.382,-1.559 1.146,-2.116 0.764,-0.557 1.742,-0.835 2.934,-0.835 1.292,0 2.329,0.299 3.11,0.896 0.782,0.597 1.172,1.376 1.172,2.336 h -1.285 c 0,-0.634 -0.284,-1.161 -0.851,-1.581 -0.567,-0.421 -1.283,-0.631 -2.147,-0.631 -0.842,0 -1.519,0.175 -2.029,0.525 -0.511,0.351 -0.766,0.806 -0.766,1.366 0,0.541 0.212,0.959 0.637,1.256 0.425,0.297 1.199,0.569 2.324,0.815 1.124,0.247 1.967,0.511 2.527,0.791 0.561,0.28 0.976,0.617 1.248,1.01 0.271,0.394 0.407,0.871 0.407,1.431 0,0.914 -0.394,1.645 -1.183,2.191 -0.789,0.547 -1.818,0.821 -3.089,0.821 -1.349,0 -2.443,-0.305 -3.282,-0.916 -0.839,-0.61 -1.259,-1.382 -1.259,-2.317 h 1.286 c 0.05,0.701 0.365,1.247 0.947,1.637 0.582,0.39 1.351,0.585 2.308,0.585 0.892,0 1.613,-0.184 2.163,-0.55 0.55,-0.365 0.825,-0.829 0.825,-1.39 z" />
	<path
   style="fill:#41576d"
   id="path36"
   d="m 75.443,123.882 c 0,-0.226 0.078,-0.417 0.235,-0.572 0.157,-0.156 0.371,-0.234 0.643,-0.234 0.272,0 0.487,0.078 0.648,0.234 0.161,0.156 0.241,0.347 0.241,0.572 0,0.225 -0.081,0.414 -0.241,0.566 -0.161,0.153 -0.376,0.229 -0.648,0.229 -0.272,0 -0.486,-0.076 -0.643,-0.229 -0.157,-0.152 -0.235,-0.341 -0.235,-0.566 z m 1.51,13.955 h -1.285 v -10.828 h 1.285 z" />
	<path
   style="fill:#41576d"
   id="path38"
   d="m 82.994,124.237 v 2.772 h 2.398 v 0.98 h -2.398 v 7.223 c 0,0.601 0.116,1.049 0.348,1.343 0.232,0.293 0.619,0.44 1.162,0.44 0.213,0 0.56,-0.033 1.038,-0.1 l 0.054,0.973 c -0.336,0.112 -0.792,0.168 -1.371,0.168 -0.878,0 -1.517,-0.238 -1.917,-0.716 -0.4,-0.477 -0.6,-1.179 -0.6,-2.106 v -7.225 h -2.131 v -0.98 h 2.131 v -2.772 z" />
	<path
   style="fill:#41576d"
   id="path40"
   d="m 95.931,137.837 c -0.128,-0.34 -0.21,-0.844 -0.246,-1.511 -0.449,0.547 -1.022,0.969 -1.719,1.266 -0.695,0.297 -1.433,0.445 -2.211,0.445 -1.113,0 -2.015,-0.29 -2.704,-0.871 -0.689,-0.58 -1.033,-1.314 -1.033,-2.202 0,-1.054 0.469,-1.888 1.408,-2.501 0.938,-0.614 2.247,-0.921 3.924,-0.921 h 2.323 v -1.231 c 0,-0.774 -0.255,-1.382 -0.765,-1.826 -0.511,-0.444 -1.255,-0.666 -2.233,-0.666 -0.893,0 -1.631,0.213 -2.216,0.641 -0.585,0.427 -0.878,0.94 -0.878,1.541 l -1.285,-0.01 c 0,-0.86 0.428,-1.606 1.285,-2.237 0.856,-0.63 1.91,-0.945 3.159,-0.945 1.292,0 2.311,0.302 3.057,0.905 0.746,0.604 1.13,1.446 1.151,2.527 v 5.124 c 0,1.048 0.118,1.832 0.353,2.352 v 0.12 z m -4.026,-0.861 c 0.857,0 1.622,-0.193 2.297,-0.58 0.675,-0.387 1.165,-0.904 1.472,-1.552 v -2.381 h -2.291 c -1.278,0.013 -2.277,0.232 -2.999,0.655 -0.721,0.424 -1.081,1.006 -1.081,1.747 0,0.607 0.241,1.111 0.722,1.511 0.483,0.4 1.11,0.6 1.88,0.6 z" />
	<path
   style="fill:#41576d"
   id="path42"
   d="m 102.926,124.237 v 2.772 h 2.398 v 0.98 h -2.398 v 7.223 c 0,0.601 0.116,1.049 0.348,1.343 0.232,0.293 0.619,0.44 1.162,0.44 0.214,0 0.56,-0.033 1.039,-0.1 l 0.054,0.973 c -0.336,0.112 -0.792,0.168 -1.371,0.168 -0.878,0 -1.517,-0.238 -1.917,-0.716 -0.4,-0.477 -0.6,-1.179 -0.6,-2.106 v -7.225 H 99.51 v -0.98 h 2.131 v -2.772 z" />
	<path
   style="fill:#41576d"
   id="path44"
   d="m 113.037,138.037 c -0.985,0 -1.875,-0.227 -2.671,-0.681 -0.795,-0.454 -1.416,-1.085 -1.858,-1.896 -0.442,-0.81 -0.664,-1.719 -0.664,-2.727 v -0.43 c 0,-1.041 0.215,-1.978 0.648,-2.812 0.432,-0.833 1.033,-1.489 1.804,-1.966 0.771,-0.477 1.606,-0.716 2.505,-0.716 1.406,0 2.521,0.449 3.346,1.346 0.825,0.898 1.237,2.124 1.237,3.678 v 0.671 h -8.266 v 0.23 c 0,1.228 0.377,2.25 1.129,3.067 0.754,0.817 1.701,1.226 2.843,1.226 0.685,0 1.291,-0.117 1.815,-0.351 0.525,-0.233 1.001,-0.606 1.429,-1.121 l 0.803,0.57 c -0.941,1.275 -2.309,1.912 -4.1,1.912 z m -0.236,-10.207 c -0.964,0 -1.776,0.33 -2.436,0.991 -0.66,0.66 -1.062,1.547 -1.205,2.661 h 6.949 v -0.13 c -0.036,-1.041 -0.354,-1.888 -0.953,-2.542 -0.598,-0.653 -1.385,-0.98 -2.355,-0.98 z" />
	<path
   style="fill:#41576d"
   id="path46"
   d="m 127.762,137.837 c -0.128,-0.34 -0.21,-0.844 -0.247,-1.511 -0.449,0.547 -1.022,0.969 -1.718,1.266 -0.696,0.297 -1.434,0.445 -2.211,0.445 -1.113,0 -2.014,-0.29 -2.704,-0.871 -0.689,-0.58 -1.033,-1.314 -1.033,-2.202 0,-1.054 0.469,-1.888 1.408,-2.501 0.938,-0.614 2.247,-0.921 3.925,-0.921 h 2.324 v -1.231 c 0,-0.774 -0.256,-1.382 -0.767,-1.826 -0.511,-0.444 -1.254,-0.666 -2.232,-0.666 -0.892,0 -1.631,0.213 -2.217,0.641 -0.584,0.427 -0.877,0.94 -0.877,1.541 l -1.285,-0.01 c 0,-0.86 0.428,-1.606 1.285,-2.237 0.856,-0.63 1.91,-0.945 3.158,-0.945 1.292,0 2.312,0.302 3.058,0.905 0.746,0.604 1.129,1.446 1.151,2.527 v 5.124 c 0,1.048 0.117,1.832 0.354,2.352 v 0.12 z m -4.026,-0.861 c 0.856,0 1.623,-0.193 2.296,-0.58 0.675,-0.387 1.166,-0.904 1.474,-1.552 v -2.381 h -2.292 c -1.277,0.013 -2.277,0.232 -2.997,0.655 -0.722,0.424 -1.082,1.006 -1.082,1.747 0,0.607 0.241,1.111 0.723,1.511 0.48,0.4 1.106,0.6 1.878,0.6 z" />
	<path
   style="fill:#41576d"
   id="path48"
   d="m 149.119,124.307 h -5.343 v 13.53 h -1.317 v -13.53 h -5.333 v -1.041 h 11.993 z" />
	<path
   style="fill:#41576d"
   id="path50"
   d="m 155.331,138.037 c -0.985,0 -1.875,-0.227 -2.671,-0.681 -0.796,-0.454 -1.416,-1.085 -1.858,-1.896 -0.442,-0.81 -0.664,-1.719 -0.664,-2.727 v -0.43 c 0,-1.041 0.216,-1.978 0.648,-2.812 0.431,-0.833 1.033,-1.489 1.804,-1.966 0.77,-0.477 1.606,-0.716 2.505,-0.716 1.406,0 2.522,0.449 3.346,1.346 0.825,0.898 1.237,2.124 1.237,3.678 v 0.671 h -8.267 v 0.23 c 0,1.228 0.377,2.25 1.13,3.067 0.753,0.817 1.701,1.226 2.843,1.226 0.686,0 1.291,-0.117 1.815,-0.351 0.525,-0.233 1.002,-0.606 1.429,-1.121 l 0.804,0.57 c -0.942,1.275 -2.31,1.912 -4.101,1.912 z m -0.236,-10.207 c -0.963,0 -1.776,0.33 -2.436,0.991 -0.66,0.66 -1.062,1.547 -1.205,2.661 h 6.949 v -0.13 c -0.036,-1.041 -0.353,-1.888 -0.953,-2.542 -0.6,-0.654 -1.384,-0.98 -2.355,-0.98 z" />
	<path
   style="fill:#41576d"
   id="path52"
   d="m 164.018,128.84 c 0.421,-0.647 0.96,-1.147 1.617,-1.5 0.657,-0.354 1.375,-0.531 2.153,-0.531 1.242,0 2.167,0.327 2.773,0.98 0.607,0.654 0.914,1.635 0.92,2.942 v 7.105 h -1.274 v -7.115 c -0.007,-0.967 -0.227,-1.688 -0.658,-2.162 -0.433,-0.474 -1.123,-0.71 -2.072,-0.71 -0.792,0 -1.494,0.232 -2.104,0.696 -0.61,0.464 -1.062,1.089 -1.354,1.876 v 7.415 h -1.274 v -15.371 h 1.274 v 6.375 z" />
	<path
   style="fill:#41576d"
   id="path54"
   d="m 176.569,127.009 0.043,1.852 c 0.436,-0.667 0.979,-1.176 1.627,-1.526 0.649,-0.35 1.367,-0.525 2.153,-0.525 1.242,0 2.167,0.327 2.773,0.98 0.607,0.654 0.914,1.635 0.92,2.942 v 7.105 h -1.274 v -7.115 c -0.007,-0.967 -0.227,-1.688 -0.658,-2.162 -0.432,-0.474 -1.123,-0.71 -2.072,-0.71 -0.792,0 -1.494,0.232 -2.104,0.696 -0.61,0.464 -1.062,1.089 -1.354,1.876 v 7.415 h -1.274 v -10.828 z" />
	<path
   style="fill:#41576d"
   id="path56"
   d="m 187.889,123.882 c 0,-0.226 0.079,-0.417 0.235,-0.572 0.157,-0.156 0.372,-0.234 0.643,-0.234 0.271,0 0.488,0.078 0.648,0.234 0.161,0.156 0.241,0.347 0.241,0.572 0,0.225 -0.08,0.414 -0.241,0.566 -0.16,0.153 -0.377,0.229 -0.648,0.229 -0.271,0 -0.485,-0.076 -0.643,-0.229 -0.156,-0.152 -0.235,-0.341 -0.235,-0.566 z m 1.51,13.955 h -1.286 v -10.828 h 1.286 z" />
	<path
   style="fill:#41576d"
   id="path58"
   d="m 197.732,137.026 c 0.893,0 1.641,-0.235 2.244,-0.706 0.603,-0.47 0.93,-1.079 0.979,-1.826 h 1.231 c -0.035,0.66 -0.257,1.263 -0.664,1.806 -0.406,0.543 -0.947,0.969 -1.622,1.276 -0.674,0.307 -1.397,0.46 -2.168,0.46 -1.52,0 -2.725,-0.494 -3.614,-1.481 -0.888,-0.987 -1.333,-2.314 -1.333,-3.982 v -0.36 c 0,-1.067 0.2,-2.012 0.6,-2.832 0.4,-0.821 0.972,-1.455 1.718,-1.901 0.746,-0.446 1.619,-0.67 2.618,-0.67 1.271,0 2.318,0.354 3.143,1.061 0.824,0.708 1.265,1.638 1.322,2.792 h -1.231 c -0.057,-0.848 -0.384,-1.531 -0.979,-2.052 -0.596,-0.521 -1.348,-0.781 -2.254,-0.781 -1.157,0 -2.054,0.391 -2.692,1.171 -0.64,0.781 -0.958,1.875 -0.958,3.282 v 0.351 c 0,1.381 0.319,2.458 0.958,3.232 0.637,0.773 1.538,1.16 2.702,1.16 z" />
	<path
   style="fill:#41576d"
   id="path60"
   d="m 212.629,137.837 c -0.129,-0.34 -0.211,-0.844 -0.247,-1.511 -0.449,0.547 -1.022,0.969 -1.718,1.266 -0.696,0.297 -1.433,0.445 -2.211,0.445 -1.113,0 -2.014,-0.29 -2.704,-0.871 -0.689,-0.58 -1.033,-1.314 -1.033,-2.202 0,-1.054 0.468,-1.888 1.408,-2.501 0.938,-0.614 2.247,-0.921 3.925,-0.921 h 2.323 v -1.231 c 0,-0.774 -0.256,-1.382 -0.766,-1.826 -0.511,-0.444 -1.254,-0.666 -2.232,-0.666 -0.893,0 -1.631,0.213 -2.217,0.641 -0.584,0.427 -0.877,0.94 -0.877,1.541 l -1.285,-0.01 c 0,-0.86 0.429,-1.606 1.285,-2.237 0.856,-0.63 1.91,-0.945 3.158,-0.945 1.292,0 2.312,0.302 3.058,0.905 0.746,0.604 1.13,1.446 1.151,2.527 v 5.124 c 0,1.048 0.117,1.832 0.354,2.352 v 0.12 z m -4.026,-0.861 c 0.856,0 1.623,-0.193 2.296,-0.58 0.675,-0.387 1.166,-0.904 1.473,-1.552 v -2.381 h -2.292 c -1.277,0.013 -2.277,0.232 -2.998,0.655 -0.721,0.424 -1.082,1.006 -1.082,1.747 0,0.607 0.241,1.111 0.723,1.511 0.483,0.4 1.109,0.6 1.88,0.6 z m 4.337,-14.08 c 0,0.767 -0.28,1.387 -0.841,1.861 -0.56,0.474 -1.312,0.711 -2.254,0.711 -0.928,0 -1.675,-0.235 -2.244,-0.706 -0.567,-0.471 -0.85,-1.092 -0.85,-1.866 h 1.091 c 0,0.554 0.177,0.978 0.53,1.271 0.353,0.294 0.844,0.44 1.472,0.44 0.628,0 1.119,-0.153 1.472,-0.46 0.354,-0.306 0.53,-0.724 0.53,-1.25 h 1.094 z" />
</g>
<g
   transform="translate(0.176)"
   id="g108">
	<path
   style="fill:#41576d"
   id="path64"
   d="m -0.175,157.039 c 0,-1.677 0.378,-3.014 1.135,-4.009 0.757,-0.995 1.784,-1.493 3.082,-1.493 1.473,0 2.595,0.576 3.368,1.728 v -6.062 h 1.2 v 15.339 H 7.48 l -0.05,-1.438 c -0.773,1.092 -1.91,1.638 -3.409,1.638 -1.257,0 -2.271,-0.501 -3.041,-1.503 -0.77,-1.002 -1.155,-2.355 -1.155,-4.059 z m 1.22,0.21 c 0,1.378 0.279,2.465 0.837,3.261 0.558,0.796 1.345,1.193 2.36,1.193 1.485,0 2.542,-0.649 3.167,-1.948 v -5.073 c -0.625,-1.404 -1.674,-2.107 -3.146,-2.107 -1.016,0 -1.806,0.395 -2.37,1.183 -0.565,0.789 -0.848,1.953 -0.848,3.491 z" />
	<path
   style="fill:#41576d"
   id="path66"
   d="m 16.054,162.741 c -0.928,0 -1.767,-0.226 -2.517,-0.679 -0.75,-0.453 -1.333,-1.083 -1.75,-1.893 -0.417,-0.809 -0.625,-1.715 -0.625,-2.721 v -0.429 c 0,-1.039 0.204,-1.974 0.61,-2.807 0.407,-0.832 0.974,-1.486 1.7,-1.962 0.727,-0.476 1.513,-0.714 2.36,-0.714 1.324,0 2.375,0.448 3.151,1.343 0.777,0.896 1.166,2.119 1.166,3.67 v 0.669 h -7.787 v 0.229 c 0,1.226 0.355,2.246 1.064,3.061 0.709,0.816 1.602,1.224 2.678,1.224 0.646,0 1.215,-0.117 1.709,-0.35 0.495,-0.232 0.943,-0.605 1.347,-1.118 l 0.756,0.569 c -0.887,1.272 -2.174,1.908 -3.862,1.908 z m -0.221,-10.186 c -0.908,0 -1.673,0.33 -2.295,0.989 -0.622,0.659 -1,1.544 -1.135,2.656 h 6.546 v -0.129 c -0.034,-1.039 -0.333,-1.884 -0.898,-2.537 -0.565,-0.652 -1.304,-0.979 -2.218,-0.979 z" />
	<path
   style="fill:#41576d"
   id="path68"
   d="m 38.286,158.008 c -0.168,1.531 -0.721,2.703 -1.659,3.515 -0.938,0.812 -2.187,1.218 -3.747,1.218 -1.089,0 -2.053,-0.27 -2.89,-0.809 -0.837,-0.54 -1.484,-1.304 -1.941,-2.292 -0.458,-0.989 -0.689,-2.119 -0.696,-3.391 v -1.888 c 0,-1.291 0.229,-2.437 0.686,-3.435 0.457,-0.999 1.114,-1.769 1.972,-2.312 0.857,-0.542 1.844,-0.814 2.96,-0.814 1.573,0 2.815,0.419 3.727,1.258 0.911,0.839 1.44,2 1.588,3.485 h -1.251 c -0.309,-2.47 -1.664,-3.705 -4.064,-3.705 -1.332,0 -2.393,0.493 -3.182,1.479 -0.79,0.986 -1.185,2.349 -1.185,4.087 v 1.779 c 0,1.679 0.385,3.018 1.154,4.018 0.771,0.999 1.811,1.499 3.122,1.499 1.298,0 2.276,-0.308 2.935,-0.924 0.659,-0.616 1.065,-1.539 1.22,-2.771 h 1.251 z" />
	<path
   style="fill:#41576d"
   id="path70"
   d="m 40.395,156.979 c 0,-1.039 0.204,-1.974 0.61,-2.807 0.407,-0.832 0.981,-1.479 1.725,-1.942 0.743,-0.463 1.585,-0.694 2.526,-0.694 1.453,0 2.629,0.504 3.53,1.513 0.901,1.008 1.352,2.345 1.352,4.009 v 0.25 c 0,1.045 -0.203,1.986 -0.61,2.821 -0.407,0.836 -0.98,1.48 -1.72,1.933 -0.74,0.453 -1.583,0.679 -2.532,0.679 -1.446,0 -2.621,-0.504 -3.525,-1.513 -0.904,-1.008 -1.356,-2.345 -1.356,-4.009 z m 1.21,0.33 c 0,1.292 0.338,2.352 1.014,3.181 0.676,0.829 1.562,1.244 2.658,1.244 1.089,0 1.972,-0.415 2.648,-1.244 0.675,-0.829 1.014,-1.922 1.014,-3.28 v -0.229 c 0,-0.826 -0.155,-1.582 -0.464,-2.267 -0.31,-0.686 -0.743,-1.216 -1.301,-1.593 -0.558,-0.376 -1.197,-0.564 -1.917,-0.564 -1.075,0 -1.953,0.418 -2.632,1.253 -0.679,0.835 -1.019,1.929 -1.019,3.28 v 0.219 z" />
	<path
   style="fill:#41576d"
   id="path72"
   d="m 53.82,151.736 0.041,1.848 c 0.41,-0.666 0.921,-1.173 1.533,-1.523 0.612,-0.35 1.288,-0.524 2.028,-0.524 1.17,0 2.041,0.326 2.612,0.979 0.571,0.653 0.86,1.631 0.867,2.936 v 7.09 h -1.2 v -7.101 c -0.007,-0.965 -0.213,-1.684 -0.62,-2.157 -0.407,-0.473 -1.058,-0.709 -1.952,-0.709 -0.747,0 -1.407,0.231 -1.982,0.694 -0.575,0.462 -1,1.086 -1.276,1.873 v 7.399 h -1.2 v -10.805 z" />
	<path
   style="fill:#41576d"
   id="path74"
   d="m 70.595,159.795 c 0,-0.592 -0.241,-1.068 -0.721,-1.428 -0.481,-0.359 -1.206,-0.641 -2.174,-0.844 -0.968,-0.203 -1.72,-0.436 -2.254,-0.699 -0.534,-0.263 -0.932,-0.585 -1.19,-0.964 -0.259,-0.38 -0.388,-0.839 -0.388,-1.378 0,-0.852 0.359,-1.556 1.079,-2.112 0.72,-0.556 1.641,-0.834 2.764,-0.834 1.217,0 2.194,0.298 2.93,0.894 0.736,0.596 1.104,1.373 1.104,2.331 h -1.21 c 0,-0.632 -0.267,-1.158 -0.802,-1.577 -0.535,-0.42 -1.209,-0.629 -2.022,-0.629 -0.793,0 -1.431,0.175 -1.911,0.524 -0.48,0.349 -0.721,0.804 -0.721,1.363 0,0.54 0.2,0.957 0.6,1.253 0.4,0.297 1.129,0.568 2.188,0.814 1.059,0.247 1.853,0.51 2.38,0.789 0.528,0.28 0.919,0.616 1.175,1.008 0.255,0.393 0.383,0.869 0.383,1.428 0,0.912 -0.371,1.641 -1.114,2.187 -0.744,0.546 -1.713,0.819 -2.91,0.819 -1.271,0 -2.301,-0.305 -3.091,-0.914 -0.791,-0.609 -1.186,-1.379 -1.186,-2.312 h 1.21 c 0.047,0.7 0.345,1.244 0.893,1.633 0.548,0.39 1.272,0.584 2.174,0.584 0.84,0 1.519,-0.183 2.038,-0.55 0.516,-0.364 0.776,-0.827 0.776,-1.386 z" />
	<path
   style="fill:#41576d"
   id="path76"
   d="m 76.436,148.97 v 2.767 h 2.259 v 0.979 h -2.259 v 7.208 c 0,0.6 0.109,1.046 0.328,1.339 0.218,0.293 0.583,0.44 1.095,0.44 0.202,0 0.527,-0.033 0.978,-0.1 l 0.05,0.971 c -0.316,0.112 -0.746,0.168 -1.291,0.168 -0.827,0 -1.429,-0.238 -1.805,-0.714 -0.376,-0.476 -0.564,-1.176 -0.564,-2.102 v -7.21 h -2.008 v -0.979 h 2.008 v -2.767 z" />
	<path
   style="fill:#41576d"
   id="path78"
   d="m 86.28,152.755 c -0.255,-0.046 -0.527,-0.07 -0.817,-0.07 -0.753,0 -1.39,0.208 -1.911,0.624 -0.521,0.416 -0.893,1.021 -1.114,1.812 v 7.42 h -1.2 v -10.805 h 1.18 l 0.021,1.718 c 0.639,-1.278 1.664,-1.917 3.076,-1.917 0.336,0 0.602,0.043 0.797,0.13 z" />
	<path
   style="fill:#41576d"
   id="path80"
   d="m 95.248,161.173 c -0.727,1.045 -1.886,1.568 -3.48,1.568 -1.164,0 -2.047,-0.334 -2.652,-1.003 -0.605,-0.669 -0.915,-1.659 -0.928,-2.971 v -7.03 h 1.2 v 6.881 c 0,2.057 0.84,3.085 2.521,3.085 1.749,0 2.854,-0.716 3.318,-2.147 v -7.819 h 1.21 v 10.805 h -1.17 z" />
	<path
   style="fill:#41576d"
   id="path82"
   d="m 103.65,161.733 c 0.84,0 1.545,-0.235 2.113,-0.705 0.568,-0.469 0.875,-1.077 0.923,-1.822 h 1.16 c -0.034,0.659 -0.243,1.26 -0.625,1.802 -0.383,0.543 -0.893,0.968 -1.528,1.273 -0.635,0.306 -1.316,0.459 -2.042,0.459 -1.432,0 -2.566,-0.493 -3.404,-1.478 -0.837,-0.985 -1.256,-2.31 -1.256,-3.975 v -0.359 c 0,-1.065 0.188,-2.007 0.565,-2.826 0.376,-0.819 0.916,-1.452 1.619,-1.898 0.703,-0.446 1.525,-0.669 2.466,-0.669 1.197,0 2.184,0.353 2.96,1.059 0.776,0.706 1.192,1.634 1.246,2.786 h -1.16 c -0.054,-0.845 -0.362,-1.528 -0.923,-2.047 -0.562,-0.519 -1.27,-0.779 -2.124,-0.779 -1.089,0 -1.935,0.39 -2.536,1.168 -0.602,0.78 -0.903,1.871 -0.903,3.276 v 0.35 c 0,1.378 0.301,2.453 0.903,3.226 0.602,0.773 1.451,1.159 2.546,1.159 z" />
	<path
   style="fill:#41576d"
   id="path84"
   d="m 112.174,148.97 v 2.767 h 2.259 v 0.979 h -2.259 v 7.208 c 0,0.6 0.109,1.046 0.328,1.339 0.219,0.293 0.583,0.44 1.094,0.44 0.202,0 0.528,-0.033 0.979,-0.1 l 0.05,0.971 c -0.315,0.112 -0.746,0.168 -1.291,0.168 -0.827,0 -1.43,-0.238 -1.806,-0.714 -0.377,-0.476 -0.565,-1.176 -0.565,-2.102 v -7.21 h -2.007 v -0.979 h 2.007 v -2.767 z m 0.323,18.095 -0.716,-0.52 c 0.464,-0.652 0.706,-1.351 0.726,-2.096 v -0.959 h 1.16 v 0.629 c 0,1.272 -0.391,2.254 -1.17,2.946 z" />
	<path
   style="fill:#41576d"
   id="path86"
   d="m 116.906,148.616 c 0,-0.225 0.073,-0.416 0.221,-0.571 0.148,-0.155 0.35,-0.233 0.605,-0.233 0.256,0 0.459,0.078 0.611,0.233 0.151,0.155 0.227,0.346 0.227,0.571 0,0.225 -0.076,0.414 -0.227,0.565 -0.152,0.153 -0.354,0.228 -0.611,0.228 -0.255,0 -0.457,-0.075 -0.605,-0.228 -0.148,-0.152 -0.221,-0.34 -0.221,-0.565 z m 1.421,13.926 h -1.21 v -10.805 h 1.21 z" />
	<path
   style="fill:#41576d"
   id="path88"
   d="m 121.577,148.616 c 0,-0.225 0.073,-0.416 0.221,-0.571 0.148,-0.155 0.35,-0.233 0.605,-0.233 0.256,0 0.459,0.078 0.611,0.233 0.151,0.155 0.227,0.346 0.227,0.571 0,0.225 -0.076,0.414 -0.227,0.565 -0.152,0.153 -0.354,0.228 -0.611,0.228 -0.255,0 -0.457,-0.075 -0.605,-0.228 -0.149,-0.152 -0.221,-0.34 -0.221,-0.565 z m 1.421,13.926 h -1.21 v -10.805 h 1.21 z" />
	<path
   style="fill:#41576d"
   id="path90"
   d="m 131.665,162.542 v -14.54 h 4.336 c 1.573,0 2.767,0.322 3.582,0.964 0.813,0.643 1.22,1.59 1.22,2.843 0,0.752 -0.207,1.407 -0.62,1.963 -0.414,0.557 -0.98,0.955 -1.7,1.194 0.854,0.187 1.542,0.603 2.062,1.248 0.521,0.646 0.782,1.391 0.782,2.236 0,1.284 -0.419,2.287 -1.256,3.009 -0.838,0.722 -2.002,1.083 -3.495,1.083 z m 1.24,-8.02 h 3.39 c 1.035,-0.02 1.836,-0.262 2.405,-0.725 0.568,-0.464 0.853,-1.139 0.853,-2.026 0,-0.934 -0.294,-1.623 -0.883,-2.066 -0.588,-0.444 -1.478,-0.666 -2.668,-0.666 h -3.096 v 5.483 z m 0,1.039 v 5.942 h 3.722 c 1.063,0 1.905,-0.268 2.527,-0.802 0.622,-0.536 0.932,-1.278 0.932,-2.228 0,-0.897 -0.297,-1.607 -0.892,-2.129 -0.596,-0.522 -1.418,-0.783 -2.466,-0.783 z" />
	<path
   style="fill:#41576d"
   id="path92"
   d="m 151.101,161.173 c -0.726,1.045 -1.886,1.568 -3.479,1.568 -1.164,0 -2.048,-0.334 -2.653,-1.003 -0.605,-0.669 -0.915,-1.659 -0.928,-2.971 v -7.03 h 1.2 v 6.881 c 0,2.057 0.84,3.085 2.521,3.085 1.748,0 2.854,-0.716 3.318,-2.147 v -7.819 h 1.21 v 10.805 h -1.17 z" />
	<path
   style="fill:#41576d"
   id="path94"
   d="m 159.504,161.733 c 0.841,0 1.545,-0.235 2.113,-0.705 0.568,-0.469 0.876,-1.077 0.923,-1.822 h 1.16 c -0.034,0.659 -0.243,1.26 -0.625,1.802 -0.384,0.543 -0.892,0.968 -1.528,1.273 -0.635,0.306 -1.316,0.459 -2.042,0.459 -1.432,0 -2.567,-0.493 -3.404,-1.478 -0.837,-0.985 -1.256,-2.31 -1.256,-3.975 v -0.359 c 0,-1.065 0.188,-2.007 0.565,-2.826 0.376,-0.819 0.916,-1.452 1.618,-1.898 0.704,-0.446 1.525,-0.669 2.467,-0.669 1.196,0 2.183,0.353 2.959,1.059 0.776,0.706 1.191,1.634 1.246,2.786 h -1.16 c -0.054,-0.845 -0.361,-1.528 -0.923,-2.047 -0.562,-0.519 -1.27,-0.779 -2.123,-0.779 -1.089,0 -1.935,0.39 -2.537,1.168 -0.602,0.78 -0.903,1.871 -0.903,3.276 v 0.35 c 0,1.378 0.301,2.453 0.903,3.226 0.602,0.773 1.452,1.159 2.547,1.159 z" />
	<path
   style="fill:#41576d"
   id="path96"
   d="m 173.171,161.173 c -0.726,1.045 -1.886,1.568 -3.479,1.568 -1.163,0 -2.048,-0.334 -2.653,-1.003 -0.605,-0.669 -0.915,-1.659 -0.927,-2.971 v -7.03 h 1.2 v 6.881 c 0,2.057 0.84,3.085 2.521,3.085 1.748,0 2.854,-0.716 3.318,-2.147 v -7.819 h 1.21 v 10.805 h -1.17 z" />
	<path
   style="fill:#41576d"
   id="path98"
   d="m 182.584,152.755 c -0.255,-0.046 -0.528,-0.07 -0.816,-0.07 -0.753,0 -1.39,0.208 -1.912,0.624 -0.521,0.416 -0.893,1.021 -1.115,1.812 v 7.42 h -1.2 v -10.805 h 1.18 l 0.02,1.718 c 0.639,-1.278 1.664,-1.917 3.076,-1.917 0.336,0 0.602,0.043 0.797,0.13 z" />
	<path
   style="fill:#41576d"
   id="path100"
   d="m 188.566,162.741 c -0.928,0 -1.767,-0.226 -2.517,-0.679 -0.75,-0.453 -1.333,-1.083 -1.75,-1.893 -0.417,-0.809 -0.625,-1.715 -0.625,-2.721 v -0.429 c 0,-1.039 0.203,-1.974 0.61,-2.807 0.407,-0.832 0.973,-1.486 1.699,-1.962 0.727,-0.476 1.513,-0.714 2.36,-0.714 1.325,0 2.375,0.448 3.152,1.343 0.777,0.895 1.165,2.119 1.165,3.67 v 0.669 h -7.786 v 0.229 c 0,1.226 0.354,2.246 1.064,3.061 0.709,0.816 1.602,1.224 2.677,1.224 0.646,0 1.216,-0.117 1.71,-0.35 0.494,-0.232 0.943,-0.605 1.346,-1.118 l 0.757,0.569 c -0.886,1.272 -2.175,1.908 -3.862,1.908 z m -0.222,-10.186 c -0.908,0 -1.673,0.33 -2.294,0.989 -0.623,0.659 -1,1.544 -1.135,2.656 h 6.546 v -0.129 c -0.034,-1.039 -0.333,-1.884 -0.898,-2.537 -0.565,-0.652 -1.305,-0.979 -2.219,-0.979 z" />
	<path
   style="fill:#41576d"
   id="path102"
   d="m 201.587,159.795 c 0,-0.592 -0.24,-1.068 -0.721,-1.428 -0.48,-0.359 -1.206,-0.641 -2.174,-0.844 -0.968,-0.203 -1.72,-0.436 -2.254,-0.699 -0.534,-0.263 -0.931,-0.585 -1.189,-0.964 -0.259,-0.38 -0.389,-0.839 -0.389,-1.378 0,-0.852 0.359,-1.556 1.079,-2.112 0.719,-0.556 1.641,-0.834 2.764,-0.834 1.217,0 2.193,0.298 2.93,0.894 0.737,0.596 1.105,1.373 1.105,2.331 h -1.211 c 0,-0.632 -0.267,-1.158 -0.802,-1.577 -0.534,-0.42 -1.208,-0.629 -2.021,-0.629 -0.794,0 -1.431,0.175 -1.912,0.524 -0.481,0.35 -0.721,0.804 -0.721,1.363 0,0.54 0.2,0.957 0.6,1.253 0.399,0.297 1.129,0.568 2.188,0.814 1.059,0.247 1.852,0.51 2.38,0.789 0.528,0.28 0.919,0.616 1.175,1.008 0.256,0.393 0.384,0.869 0.384,1.428 0,0.912 -0.372,1.641 -1.114,2.187 -0.744,0.546 -1.714,0.819 -2.91,0.819 -1.271,0 -2.301,-0.305 -3.091,-0.914 -0.791,-0.609 -1.185,-1.379 -1.185,-2.312 h 1.21 c 0.046,0.7 0.345,1.244 0.892,1.633 0.549,0.39 1.272,0.584 2.174,0.584 0.841,0 1.52,-0.183 2.037,-0.55 0.518,-0.364 0.776,-0.827 0.776,-1.386 z m -3.277,7.27 -0.716,-0.52 c 0.464,-0.652 0.706,-1.351 0.726,-2.096 v -0.959 h 1.16 v 0.629 c -10e-4,1.272 -0.391,2.254 -1.17,2.946 z" />
	<path
   style="fill:#41576d"
   id="path104"
   d="m 207.43,148.97 v 2.767 h 2.259 v 0.979 h -2.259 v 7.208 c 0,0.6 0.109,1.046 0.327,1.339 0.218,0.293 0.584,0.44 1.094,0.44 0.202,0 0.528,-0.033 0.978,-0.1 l 0.051,0.971 c -0.315,0.112 -0.746,0.168 -1.291,0.168 -0.827,0 -1.429,-0.238 -1.805,-0.714 -0.377,-0.476 -0.565,-1.176 -0.565,-2.102 v -7.21 h -2.007 v -0.979 h 2.007 v -2.767 z" />
	<path
   style="fill:#41576d"
   id="path106"
   d="m 212.161,148.616 c 0,-0.225 0.073,-0.416 0.221,-0.571 0.148,-0.155 0.35,-0.233 0.605,-0.233 0.256,0 0.459,0.078 0.611,0.233 0.151,0.155 0.227,0.346 0.227,0.571 0,0.225 -0.076,0.414 -0.227,0.565 -0.152,0.153 -0.354,0.228 -0.611,0.228 -0.255,0 -0.457,-0.075 -0.605,-0.228 -0.148,-0.152 -0.221,-0.34 -0.221,-0.565 z m 1.421,13.926 h -1.21 v -10.805 h 1.21 z" />
</g>
</svg>